Chantabbai (1986) DvdRip Telugu Movie - teluguppls



General

Format                           : MPEG-4
File size                        : 702 MiB
Duration                         : 2h 13mn
Overall bit rate                 : 734 Kbps


Video

Format                           : AVC
Format/Info                      : Advanced Video Codec
Format profile                   : High@L3.0
Format settings, CABAC           : Yes
Format settings, ReFrames        : 3 frames
Codec ID                         : avc1
Codec ID/Info                    : Advanced Video Coding
Duration                         : 2h 13mn
Bit rate mode                    : Variable
Bit rate                         : 666 Kbps
Maximum bit rate                 : 3 019 Kbps
Width                            : 608 pixels
Height                           : 448 pixels
Display aspect ratio             : 4:3
Frame rate mode                  : Constant
Frame rate                       : 29.970 fps
Color space                      : YUV
Chroma subsampling               : 4:2:0
Bit depth                        : 8 bits
Scan type                        : Progressive
Bits/(Pixel*Frame)               : 0.082
Stream size                      : 637 MiB (91%)


Audio

Format                           : AAC
Format/Info                      : Advanced Audio Codec
Format profile                   : LC
Codec ID                         : 40
Duration                         : 2h 13mn
Bit rate mode                    : Variable
Bit rate                         : 64.0 Kbps
Maximum bit rate                 : 83.8 Kbps
Channel(s)                       : 2 channels
Channel positions                : Front: L R
Sampling rate                    : 48.0 KHz
Compression mode                 : Lossy
Stream size                      : 61.2 MiB (9%)


PLEASE SEEEEEEEEEEEDDDDDDDDDDDDDDD.....................

PLEASE COMMENT..................

